Coordinates
version=1
nRows=23
nColumns=30
inDegrees=yes

Units are S.I. units (second, meters, Newtons, ...)
Angles are in degrees.

endheader
time	floatyaw	floatroll	floatpitch	floatx	floaty	floatz	pro_sup_l	deviation_l	flexion_l	cmc_flexion_l	cmc_abduction_l	mp_flexion_l	ip_flexion_l	2mcp_flexion_l	2mcp_abduction_l	2pm_flexion_l	2md_flexion_l	3mcp_flexion_l	3mcp_abduction_l	3pm_flexion_l	3md_flexion_l	4mcp_flexion_l	4mcp_abduction_l	4pm_flexion_l	4md_flexion_l	5mcp_flexion_l	5mcp_abduction_l	5pm_flexion_l	5md_flexion_l
-0.995000	-160.147433	-5.066637	-73.570646	0.081415	-0.181650	-0.017437	102.655354	3.795688	-0.343718	11.948404	10.061916	-26.250180	-41.414369	29.367188	6.896145	43.723992	29.986444	23.400564	4.308594	45.391708	30.339575	12.551074	-4.365185	52.496103	36.487554	1.324917	-8.289811	61.360502	42.597621
-0.985000	-160.147433	-5.066637	-73.570646	0.081416	-0.181644	-0.017445	102.668349	3.799262	-0.338557	11.936026	10.002123	-26.245208	-41.414289	29.354025	6.898955	43.714248	29.975008	23.415126	4.304755	45.358326	30.309420	12.544104	-4.368007	52.494991	36.488313	1.323383	-8.272929	61.320803	42.571769
-0.975000	-160.147433	-5.066637	-73.570646	0.081415	-0.181638	-0.017449	102.681491	3.803253	-0.333048	11.923100	9.960467	-26.232438	-41.403128	29.337448	6.905047	43.711704	29.972561	23.414433	4.304547	45.345439	30.295212	12.534847	-4.370713	52.504277	36.494789	1.333904	-8.260303	61.283290	42.547780
-0.965000	-160.147433	-5.066637	-73.570646	0.081412	-0.181633	-0.017450	102.690490	3.805635	-0.326224	11.907195	9.948208	-26.218081	-41.384360	29.319218	6.912912	43.717590	29.980903	23.396780	4.308281	45.356373	30.300220	12.522211	-4.372724	52.523207	36.506557	1.351708	-8.255066	61.255002	42.530214
-0.955000	-160.147433	-5.066637	-73.570646	0.081408	-0.181630	-0.017448	102.690462	3.803874	-0.317521	11.887406	9.966063	-26.208843	-41.364409	29.301471	6.920217	43.729642	29.998044	23.367090	4.314477	45.384356	30.319875	12.504886	-4.373737	52.547874	36.521562	1.368071	-8.257170	61.237728	42.521540
-0.945000	-160.147433	-5.066637	-73.570646	0.081405	-0.181629	-0.017447	102.679215	3.796682	-0.307250	11.864902	10.003608	-26.209266	-41.350286	29.287396	6.924780	43.742553	30.018447	23.335055	4.320481	45.416346	30.344273	12.483024	-4.373840	52.572599	36.536653	1.374845	-8.263439	61.228469	42.521505
-0.935000	-160.147433	-5.066637	-73.570646	0.081405	-0.181630	-0.017447	102.659323	3.785296	-0.296767	11.842409	10.044190	-26.219966	-41.346772	29.281131	6.925456	43.750095	30.035162	23.310905	4.323737	45.440042	30.363307	12.459282	-4.373401	52.592134	36.548651	1.369131	-8.269274	61.221868	42.527350
-0.925000	-160.147433	-5.066637	-73.570646	0.081408	-0.181630	-0.017450	102.637416	3.773381	-0.287952	11.822885	10.072672	-26.237561	-41.354317	29.286229	6.922501	43.747713	30.042816	23.300832	4.323064	45.449755	30.371382	12.438169	-4.372865	52.603512	36.555429	1.355032	-8.270931	61.212988	42.534857
-0.915000	-160.147433	-5.066637	-73.570646	0.081412	-0.181628	-0.017452	102.620988	3.765458	-0.282184	11.808119	10.081680	-26.256445	-41.368754	29.303448	6.917282	43.734300	30.039924	23.304414	4.319257	45.447774	30.369102	12.423846	-4.372566	52.606726	36.556540	1.341257	-8.267067	61.199142	42.539898
-0.905000	-160.147433	-5.066637	-73.570646	0.081417	-0.181621	-0.017451	102.614630	3.764657	-0.279538	11.797980	10.073377	-26.271496	-41.383238	29.329692	6.911549	43.712509	30.029290	23.315461	4.314681	45.441202	30.361453	12.417910	-4.372632	52.604184	36.553142	1.336254	-8.258984	61.180454	42.539953
-0.895000	-160.147433	-5.066637	-73.570646	0.081421	-0.181611	-0.017447	102.617946	3.771055	-0.278850	11.790577	10.056788	-26.280147	-41.391560	29.359261	6.906724	43.687760	30.016375	23.325750	4.312066	45.437074	30.354185	12.418816	-4.372951	52.599312	36.547274	1.343949	-8.249770	61.159610	42.535066
-0.885000	-160.147433	-5.066637	-73.570646	0.081425	-0.181599	-0.017439	102.626250	3.781648	-0.278592	11.783204	10.042815	-26.282632	-41.390945	29.386621	6.903506	43.666584	30.006724	23.329515	4.313108	45.438914	30.350776	12.423331	-4.373217	52.594867	36.540826	1.362369	-8.242893	61.141103	42.527792
-0.875000	-160.147433	-5.066637	-73.570646	0.081426	-0.181589	-0.017431	102.633475	3.791991	-0.277822	11.773603	10.039336	-26.280547	-41.382665	29.408633	6.901882	43.654942	30.003893	23.326148	4.317612	45.446072	30.351398	12.428836	-4.373028	52.591571	36.534665	1.385344	-8.240758	61.129892	42.522001
-0.865000	-160.147433	-5.066637	-73.570646	0.081426	-0.181581	-0.017423	102.635453	3.798498	-0.276510	11.760965	10.048025	-26.274988	-41.370264	29.424790	6.901368	43.656766	30.008695	23.319738	4.323620	45.455249	30.353843	12.434845	-4.372052	52.587717	36.528356	1.405763	-8.243675	61.129438	42.520952
-0.855000	-160.147433	-5.066637	-73.570646	0.081425	-0.181577	-0.017419	102.631686	3.800004	-0.275099	11.746212	10.063897	-26.265750	-41.356791	29.435729	6.901289	43.672882	30.019686	23.315836	4.328443	45.462918	30.355504	12.442794	-4.370249	52.580259	36.520726	1.418481	-8.249599	61.139788	42.525548
-0.845000	-160.147433	-5.066637	-73.570646	0.081423	-0.181574	-0.017417	102.624769	3.797741	-0.273803	11.731506	10.077830	-26.252303	-41.343120	29.441443	6.901049	43.700662	30.034389	23.317440	4.330015	45.467546	30.355410	12.454364	-4.368062	52.567097	36.511056	1.421660	-8.254840	61.156928	42.533805
-0.835000	-160.147433	-5.066637	-73.570646	0.081421	-0.181571	-0.017417	102.618184	3.793995	-0.272288	11.719287	10.081200	-26.235836	-41.328597	29.440684	6.900420	43.734799	30.050599	23.322760	4.327848	45.470831	30.355336	12.469601	-4.366399	52.549273	36.500189	1.416457	-8.255580	61.174235	42.541903
-0.825000	-160.147433	-5.066637	-73.570646	0.081420	-0.181567	-0.017418	102.613997	3.790441	-0.270089	11.711261	10.070535	-26.220470	-41.313453	29.432165	6.899832	43.769108	30.067061	23.326435	4.323107	45.477313	30.359221	12.486323	-4.366303	52.531495	36.490667	1.405819	-8.249640	61.185696	42.546278
-0.815000	-160.147433	-5.066637	-73.570646	0.081418	-0.181564	-0.017419	102.611696	3.787175	-0.267431	11.707707	10.049725	-26.212090	-41.300981	29.416782	6.900445	43.798530	30.083114	23.323521	4.317873	45.492120	30.370843	12.501261	-4.368396	52.520355	36.485598	1.393123	-8.237693	61.189405	42.545638
-0.805000	-160.147433	-5.066637	-73.570646	0.081415	-0.181563	-0.017421	102.608608	3.782904	-0.265612	11.707379	10.028213	-26.215190	-41.297400	29.398901	6.903739	43.820444	30.097753	23.313352	4.314110	45.517632	30.390890	12.511856	-4.372415	52.521261	36.486988	1.381094	-8.223285	61.189283	42.541781
-0.795000	-160.147433	-5.066637	-73.570646	0.081411	-0.181567	-0.017423	102.601606	3.776119	-0.266401	11.708085	10.015836	-26.229877	-41.308740	29.385113	6.910702	43.834962	30.109190	23.300378	4.312932	45.550869	30.415341	12.517223	-4.377176	52.535872	36.494657	1.371234	-8.211479	61.193551	42.538713
-0.785000	-160.147433	-5.066637	-73.570646	0.081407	-0.181576	-0.017426	102.589338	3.766518	-0.270757	11.707656	10.017236	-26.251122	-41.336278	29.380927	6.921078	43.844380	30.115538	23.291543	4.314419	45.583485	30.436479	12.517912	-4.381053	52.561333	36.506352	1.364049	-8.206709	61.210270	42.540436
-0.775000	-160.147433	-5.066637	-73.570646	0.081405	-0.181588	-0.017427	102.573732	3.755786	-0.277912	11.704746	10.029414	-26.270746	-41.373761	29.387798	6.933256	43.851925	30.115966	23.292435	4.317830	45.604868	30.446158	12.515328	-4.382738	52.591301	36.518728	1.359876	-8.210898	61.242383	42.548625
